{"title":"Snowflake, the White Gorilla 2013 BRRip x264 UNiQUE","uid":8891131,"size":1501204918,"categoryP":"video","categoryS":"movies","magnet":"?xt=urn:btih:843206bdd67524197ac8b7ca4e36be3b05153e28&amp;dn=Snowflake%2C+the+White+Gorilla+2013+BRRip+x264+UNiQUE&amp;tr=udp%3A%2F%2Ftracker.openbittorrent.com%3A80&amp;tr=udp%3A%2F%2Fopen.demonii.com%3A1337&amp;tr=udp%3A%2F%2Ftracker.coppersurfer.tk%3A6969&amp;tr=udp%3A%2F%2Fexodus.desync.com%3A6969","seeders":1,"leechers":0,"uploader":"TeX","files":3,"time":1378586014,"description":"[img]http://i.imgur.com/9bt82Mh.jpg[/img]\n\nSource: 720p Bluray\n &lt;a href=&quot;\nhttp://www.imdb.com/title/tt1429433/&quot; rel=&quot;nofollow&quot; target=&quot;_NEW&quot;&gt;\nhttp://www.imdb.com/title/tt1429433/&lt;/a&gt;\n\nGeneral:\n\nFormat : Matroska\nFormat version : Version 2\nFile size : 1.40 GiB\nDuration : 1h 29mn\nOverall bit rate mode : Variable\nOverall bit rate : 2 246 Kbps\nEncoded date : UTC 2013-09-07 06:02:17\nWriting application : mkvmerge v6.3.0 ('You can't stop me!') built on Jun 28 2013 20:09:41\nWriting library : libebml v1.3.0 + libmatroska v1.4.0\n\nVideo:\n\nID : 1\nFormat : AVC\nFormat/Info : Advanced Video Codec\nFormat profile : &lt;a class=&quot;__cf_email__&quot; href=&quot;/cdn-cgi/l/email-protection&quot; data-cfemail=&quot;1159787679515d253f20&quot;&gt;[email&amp;#160;protected]&lt;/a&gt;&lt;script cf-hash='f9e31' type=&quot;text/javascript&quot;&gt;\n/* &lt;![CDATA[ */!function(){try{var t=&quot;currentScript&quot;in document?document.currentScript:function(){for(var t=document.getElementsByTagName(&quot;script&quot;),e=t.length;e--;)if(t[e].getAttribute(&quot;cf-hash&quot;))return t[e]}();if(t&amp;&amp;t.previousSibling){var e,r,n,i,c=t.previousSibling,a=c.getAttribute(&quot;data-cfemail&quot;);if(a){for(e=&quot;&quot;,r=parseInt(a.substr(0,2),16),n=2;a.length-n;n+=2)i=parseInt(a.substr(n,2),16)^r,e+=String.fromCharCode(i);e=document.createTextNode(e),c.parentNode.replaceChild(e,c)}}}catch(u){}}();/* ]]&gt; */&lt;/script&gt;\nFormat settings, CABAC : Yes\nFormat settings, ReFrames : 3 frames\nCodec ID : V_MPEG4/ISO/AVC\nDuration : 1h 29mn\nBit rate mode : Variable\nBit rate : 2 021 Kbps\nMaximum bit rate : 40.0 Mbps\nWidth : 720 pixels\nHeight : 304 pixels\nDisplay aspect ratio : 2.35:1\nFrame rate : 24.000 fps\nColor space : YUV\nChroma subsampling : 4:2:0\nBit depth : 8 bits\nScan type : Progressive\nBits/(Pixel*Frame) : 0.385\nStream size : 1.23 GiB (88%)\nWriting library : x264 core 138 r2358 9e941d1\nDefault : Yes\nForced : No\nColor primaries : BT.709-5, BT.1361, IEC 61966-2-4, SMPTE RP177\nTransfer characteristics : BT.709-5, BT.1361\nMatrix coefficients : BT.709-5, BT.1361, IEC 61966-2-4 709, SMPTE RP177\n\nAudio:\n\nID : 2\nFormat : AC-3\nFormat/Info : Audio Coding 3\nMode extension : CM (complete main)\nFormat settings, Endianness : Big\nCodec ID : A_AC3\nDuration : 1h 29mn\nBit rate mode : Constant\nBit rate : 224 Kbps\nChannel(s) : 6 channels\nChannel positions : Front: L C R, Side: L R, LFE\nSampling rate : 48.0 KHz\nBit depth : 16 bits\nCompression mode : Lossy\nStream size : 143 MiB (10%)\nLanguage : English\nDefault : Yes\nForced : No\n\nText:\n\nID : 3\nFormat : UTF-8\nCodec ID : S_TEXT/UTF8\nCodec ID/Info : UTF-8 Plain Text\nLanguage : Spanish\nDefault : No\nForced : No\n","torrent":{"xt":"urn:btih:843206bdd67524197ac8b7ca4e36be3b05153e28","amp;dn":"Snowflake%2C+the+White+Gorilla+2013+BRRip+x264+UNiQUE","amp;tr":["udp%3A%2F%2Ftracker.openbittorrent.com%3A80","udp%3A%2F%2Fopen.demonii.com%3A1337","udp%3A%2F%2Ftracker.coppersurfer.tk%3A6969","udp%3A%2F%2Fexodus.desync.com%3A6969"],"infoHash":"843206bdd67524197ac8b7ca4e36be3b05153e28","infoHashBuffer":{"type":"Buffer","data":[132,50,6,189,214,117,36,25,122,200,183,202,78,54,190,59,5,21,62,40]},"announce":[],"urlList":[]}}